<mxfile host="65bd71144e">
    <diagram id="uAPFCQGwzSff_5QDCwzC" name="PÃ¡gina-1">
        <mxGraphModel dx="629" dy="449" grid="1" gridSize="10" guides="1" tooltips="1" connect="1" arrows="1" fold="1" page="1" pageScale="1" pageWidth="827" pageHeight="1169" math="0" shadow="0">
            <root>
                <mxCell id="0"/>
                <mxCell id="1" parent="0"/>
                <mxCell id="4" value="" style="edgeStyle=none;html=1;fontColor=#000000;strokeColor=#000000;" edge="1" parent="1" source="2" target="3">
                    <mxGeometry relative="1" as="geometry"/>
                </mxCell>
                <mxCell id="2" value="INICIO" style="ellipse;whiteSpace=wrap;html=1;fillColor=#FF9999;strokeColor=#000000;fontColor=#000000;" vertex="1" parent="1">
                    <mxGeometry x="120" y="80" width="80" height="40" as="geometry"/>
                </mxCell>
                <mxCell id="6" value="" style="edgeStyle=none;html=1;fontColor=#000000;strokeColor=#000000;" edge="1" parent="1" source="3" target="5">
                    <mxGeometry relative="1" as="geometry"/>
                </mxCell>
                <mxCell id="3" value="import random&lt;br&gt;j = 0&lt;br&gt;d = 0&lt;br&gt;m = randint(1, 12)&lt;br&gt;d += m" style="whiteSpace=wrap;html=1;fillColor=#9999FF;strokeColor=#000000;fontColor=#000000;" vertex="1" parent="1">
                    <mxGeometry x="100" y="160" width="120" height="80" as="geometry"/>
                </mxCell>
                <mxCell id="8" value="" style="edgeStyle=none;html=1;fontColor=#000000;strokeColor=#000000;" edge="1" parent="1" source="5" target="7">
                    <mxGeometry relative="1" as="geometry"/>
                </mxCell>
                <mxCell id="5" value="&quot;dealer&quot;, m" style="shape=document;whiteSpace=wrap;html=1;boundedLbl=1;fillColor=#FFFF99;strokeColor=#000000;fontColor=#000000;" vertex="1" parent="1">
                    <mxGeometry x="120" y="280" width="80" height="40" as="geometry"/>
                </mxCell>
                <mxCell id="10" value="" style="edgeStyle=none;html=1;fontColor=#000000;strokeColor=#000000;" edge="1" parent="1" source="7" target="9">
                    <mxGeometry relative="1" as="geometry"/>
                </mxCell>
                <mxCell id="7" value="m = randint(1, 12)&lt;br&gt;d += m&lt;br&gt;m = randint(1, 12)&lt;br&gt;j += m" style="whiteSpace=wrap;html=1;fillColor=#9999FF;strokeColor=#000000;fontColor=#000000;" vertex="1" parent="1">
                    <mxGeometry x="100" y="360" width="120" height="80" as="geometry"/>
                </mxCell>
                <mxCell id="14" value="" style="edgeStyle=none;html=1;fontColor=#000000;strokeColor=#000000;" edge="1" parent="1" source="9" target="13">
                    <mxGeometry relative="1" as="geometry"/>
                </mxCell>
                <mxCell id="9" value="&quot;jugador&quot;, j" style="shape=document;whiteSpace=wrap;html=1;boundedLbl=1;fillColor=#FFFF99;strokeColor=#000000;fontColor=#000000;" vertex="1" parent="1">
                    <mxGeometry x="120" y="480" width="80" height="40" as="geometry"/>
                </mxCell>
                <mxCell id="16" value="" style="edgeStyle=none;html=1;fontColor=#000000;strokeColor=#000000;" edge="1" parent="1" source="13" target="15">
                    <mxGeometry relative="1" as="geometry"/>
                </mxCell>
                <mxCell id="13" value="seguir" style="shape=parallelogram;perimeter=parallelogramPerimeter;whiteSpace=wrap;html=1;fixedSize=1;fillColor=#FFFF99;strokeColor=#000000;fontColor=#000000;" vertex="1" parent="1">
                    <mxGeometry x="120" y="560" width="80" height="40" as="geometry"/>
                </mxCell>
                <mxCell id="20" style="edgeStyle=none;html=1;exitX=0.5;exitY=1;exitDx=0;exitDy=0;entryX=0.5;entryY=0;entryDx=0;entryDy=0;fontColor=#000000;strokeColor=#000000;" edge="1" parent="1" source="15" target="17">
                    <mxGeometry relative="1" as="geometry"/>
                </mxCell>
                <mxCell id="26" value="" style="edgeStyle=orthogonalEdgeStyle;html=1;fontColor=#000000;endArrow=classic;endFill=1;strokeColor=#000000;entryX=0.5;entryY=0;entryDx=0;entryDy=0;" edge="1" parent="1" source="15" target="25">
                    <mxGeometry relative="1" as="geometry"/>
                </mxCell>
                <mxCell id="15" value="seguir = 1&lt;br&gt;and j &amp;lt; 22" style="rhombus;whiteSpace=wrap;html=1;fillColor=#CC99FF;strokeColor=#000000;fontColor=#000000;" vertex="1" parent="1">
                    <mxGeometry x="120" y="640" width="80" height="80" as="geometry"/>
                </mxCell>
                <mxCell id="19" value="" style="edgeStyle=none;html=1;fontColor=#000000;strokeColor=#000000;" edge="1" parent="1" source="17" target="18">
                    <mxGeometry relative="1" as="geometry"/>
                </mxCell>
                <mxCell id="17" value="m = randint(1, 12)&lt;br&gt;j += m" style="whiteSpace=wrap;html=1;fillColor=#9999FF;strokeColor=#000000;fontColor=#000000;" vertex="1" parent="1">
                    <mxGeometry x="100" y="760" width="120" height="60" as="geometry"/>
                </mxCell>
                <mxCell id="23" style="edgeStyle=none;html=1;entryX=0.5;entryY=1;entryDx=0;entryDy=0;fontColor=#000000;endArrow=none;endFill=0;strokeColor=#000000;exitX=0.5;exitY=1;exitDx=0;exitDy=0;exitPerimeter=0;" edge="1" parent="1" source="18" target="22">
                    <mxGeometry relative="1" as="geometry">
                        <mxPoint x="160" y="930" as="sourcePoint"/>
                        <Array as="points">
                            <mxPoint x="160" y="940"/>
                            <mxPoint x="60" y="940"/>
                        </Array>
                    </mxGeometry>
                </mxCell>
                <mxCell id="18" value="&quot;jugador&quot;, j" style="shape=document;whiteSpace=wrap;html=1;boundedLbl=1;fillColor=#FFFF99;strokeColor=#000000;fontColor=#000000;" vertex="1" parent="1">
                    <mxGeometry x="120" y="860" width="80" height="40" as="geometry"/>
                </mxCell>
                <mxCell id="24" style="edgeStyle=none;html=1;exitX=0.5;exitY=0;exitDx=0;exitDy=0;fontColor=#000000;endArrow=none;endFill=0;strokeColor=#000000;" edge="1" parent="1" source="22">
                    <mxGeometry relative="1" as="geometry">
                        <mxPoint x="160" y="620" as="targetPoint"/>
                        <Array as="points">
                            <mxPoint x="60" y="620"/>
                        </Array>
                    </mxGeometry>
                </mxCell>
                <mxCell id="22" value="seguir" style="shape=parallelogram;perimeter=parallelogramPerimeter;whiteSpace=wrap;html=1;fixedSize=1;fillColor=#FFFF99;strokeColor=#000000;fontColor=#000000;" vertex="1" parent="1">
                    <mxGeometry x="20" y="660" width="80" height="40" as="geometry"/>
                </mxCell>
                <mxCell id="28" style="edgeStyle=orthogonalEdgeStyle;html=1;exitX=0.5;exitY=1;exitDx=0;exitDy=0;entryX=0.5;entryY=0;entryDx=0;entryDy=0;fontColor=#000000;endArrow=classic;endFill=1;strokeColor=#000000;" edge="1" parent="1" source="25" target="27">
                    <mxGeometry relative="1" as="geometry"/>
                </mxCell>
                <mxCell id="31" value="" style="edgeStyle=orthogonalEdgeStyle;html=1;fontColor=#000000;endArrow=classic;endFill=1;strokeColor=#000000;entryX=0.5;entryY=0;entryDx=0;entryDy=0;" edge="1" parent="1" source="25" target="30">
                    <mxGeometry relative="1" as="geometry"/>
                </mxCell>
                <mxCell id="25" value="d &amp;lt; 17" style="rhombus;whiteSpace=wrap;html=1;fillColor=#CC99FF;strokeColor=#000000;fontColor=#000000;" vertex="1" parent="1">
                    <mxGeometry x="290" y="720" width="60" height="60" as="geometry"/>
                </mxCell>
                <mxCell id="29" style="edgeStyle=orthogonalEdgeStyle;html=1;exitX=0.5;exitY=1;exitDx=0;exitDy=0;fontColor=#000000;endArrow=none;endFill=0;strokeColor=#000000;" edge="1" parent="1" source="27">
                    <mxGeometry relative="1" as="geometry">
                        <mxPoint x="320" y="700" as="targetPoint"/>
                        <Array as="points">
                            <mxPoint x="320" y="920"/>
                            <mxPoint x="240" y="920"/>
                            <mxPoint x="240" y="700"/>
                        </Array>
                    </mxGeometry>
                </mxCell>
                <mxCell id="27" value="d = randint(1, 12)&lt;br&gt;d += m" style="whiteSpace=wrap;html=1;fillColor=#9999FF;strokeColor=#000000;fontColor=#000000;" vertex="1" parent="1">
                    <mxGeometry x="260" y="820" width="120" height="60" as="geometry"/>
                </mxCell>
                <mxCell id="34" value="" style="edgeStyle=orthogonalEdgeStyle;html=1;fontColor=#000000;endArrow=classic;endFill=1;strokeColor=#000000;entryX=0.5;entryY=0;entryDx=0;entryDy=0;exitX=1;exitY=0.5;exitDx=0;exitDy=0;" edge="1" parent="1" source="30" target="33">
                    <mxGeometry relative="1" as="geometry"/>
                </mxCell>
                <mxCell id="36" style="edgeStyle=orthogonalEdgeStyle;html=1;exitX=0;exitY=0.5;exitDx=0;exitDy=0;entryX=0.5;entryY=0;entryDx=0;entryDy=0;fontColor=#000000;endArrow=classic;endFill=1;strokeColor=#000000;" edge="1" parent="1" source="30" target="35">
                    <mxGeometry relative="1" as="geometry"/>
                </mxCell>
                <mxCell id="30" value="&lt;p style=&quot;line-height: 1.2&quot;&gt;d &amp;gt; 21 and j &amp;lt; 22&lt;br&gt;or j &amp;gt; d and j &amp;lt; 22&lt;/p&gt;" style="rhombus;whiteSpace=wrap;html=1;fillColor=#CC99FF;strokeColor=#000000;fontColor=#000000;" vertex="1" parent="1">
                    <mxGeometry x="480" y="790" width="120" height="100" as="geometry"/>
                </mxCell>
                <mxCell id="33" value="&quot;ganaste&quot;, d" style="shape=document;whiteSpace=wrap;html=1;boundedLbl=1;fillColor=#FFFF99;strokeColor=#000000;fontColor=#000000;" vertex="1" parent="1">
                    <mxGeometry x="600" y="880" width="80" height="40" as="geometry"/>
                </mxCell>
                <mxCell id="35" value="&quot;perdiste&quot;, d" style="shape=document;whiteSpace=wrap;html=1;boundedLbl=1;fillColor=#FFFF99;strokeColor=#000000;fontColor=#000000;" vertex="1" parent="1">
                    <mxGeometry x="400" y="880" width="80" height="40" as="geometry"/>
                </mxCell>
                <mxCell id="39" value="" style="endArrow=none;html=1;fontColor=#000000;strokeColor=#000000;" edge="1" parent="1">
                    <mxGeometry width="50" height="50" relative="1" as="geometry">
                        <mxPoint x="440" y="920" as="sourcePoint"/>
                        <mxPoint x="640" y="920" as="targetPoint"/>
                        <Array as="points">
                            <mxPoint x="440" y="960"/>
                            <mxPoint x="640" y="960"/>
                        </Array>
                    </mxGeometry>
                </mxCell>
                <mxCell id="40" value="" style="endArrow=classic;html=1;fontColor=#000000;strokeColor=#000000;" edge="1" parent="1">
                    <mxGeometry width="50" height="50" relative="1" as="geometry">
                        <mxPoint x="540" y="960" as="sourcePoint"/>
                        <mxPoint x="540" y="1000" as="targetPoint"/>
                    </mxGeometry>
                </mxCell>
                <mxCell id="41" value="FIN" style="ellipse;whiteSpace=wrap;html=1;fillColor=#FF9999;strokeColor=#000000;fontColor=#000000;" vertex="1" parent="1">
                    <mxGeometry x="500" y="1000" width="80" height="40" as="geometry"/>
                </mxCell>
            </root>
        </mxGraphModel>
    </diagram>
</mxfile>